<?xml version="1.0" standalone="no"?>
<!DOCTYPE svg PUBLIC "-//W3C//DTD SVG 20010904//EN"
 "http://www.w3.org/TR/2001/REC-SVG-20010904/DTD/svg10.dtd">
<svg version="1.0" xmlns="http://www.w3.org/2000/svg"
 width="842.000000pt" height="388.000000pt" viewBox="0 0 842.000000 388.000000"
 preserveAspectRatio="xMidYMid meet">

<g transform="translate(0.000000,388.000000) scale(0.100000,-0.100000)"
fill="#000000" stroke="none">
<path d="M150 1955 l0 -1665 4005 0 4005 0 0 1665 0 1665 -4005 0 -4005 0 0
-1665z m7940 -20 l0 -1565 -3930 0 -3930 0 0 1565 0 1565 3930 0 3930 0 0
-1565z"/>
<path d="M380 1940 l0 -1340 1890 0 1890 0 0 1340 0 1340 -1890 0 -1890 0 0
-1340z m720 450 l0 -60 -150 0 -150 0 0 -150 0 -150 140 0 140 0 0 -55 0 -55
-140 0 -140 0 0 -150 0 -150 150 0 150 0 0 -60 0 -60 -185 0 -185 0 0 475 0
475 185 0 185 0 0 -60z m500 40 c0 -15 7 -20 25 -20 18 0 25 -5 25 -20 0 -11
7 -20 15 -20 8 0 15 -9 15 -20 0 -11 5 -20 10 -20 6 0 10 -16 10 -35 0 -24 5
-35 15 -35 12 0 15 -13 15 -60 l0 -60 -50 0 -50 0 0 60 c0 47 -3 60 -15 60 -8
0 -15 7 -15 15 0 8 -4 15 -10 15 -5 0 -10 9 -10 20 0 18 -7 20 -75 20 -68 0
-75 -2 -75 -20 0 -15 -7 -20 -25 -20 -25 0 -25 -1 -25 -90 0 -89 0 -90 25 -90
18 0 25 -5 25 -20 0 -15 7 -20 25 -20 18 0 25 -5 25 -20 0 -17 7 -20 50 -20
43 0 50 -3 50 -20 0 -15 7 -20 25 -20 16 0 25 -6 25 -15 0 -9 9 -15 25 -15 18
0 25 -5 25 -20 0 -11 5 -20 10 -20 6 0 10 -9 10 -20 0 -11 7 -20 15 -20 12 0
15 -19 15 -115 0 -96 -3 -115 -15 -115 -10 0 -15 -11 -15 -35 0 -19 -4 -35
-10 -35 -5 0 -10 -9 -10 -20 0 -15 -7 -20 -25 -20 -18 0 -25 -5 -25 -20 0 -19
-7 -20 -115 -20 -108 0 -115 1 -115 20 0 15 -7 20 -25 20 -18 0 -25 5 -25 20
0 11 -4 20 -10 20 -5 0 -10 9 -10 20 0 11 -7 20 -15 20 -8 0 -15 7 -15 15 0 8
-4 15 -10 15 -6 0 -10 32 -10 75 l0 75 35 0 c33 0 35 -2 35 -35 0 -24 5 -35
15 -35 8 0 15 -9 15 -20 0 -11 5 -20 10 -20 6 0 10 -9 10 -20 0 -11 7 -20 15
-20 8 0 15 -7 15 -15 0 -12 15 -15 75 -15 60 0 75 3 75 15 0 9 9 15 25 15 23
0 25 4 25 40 0 22 5 40 10 40 6 0 10 16 10 35 0 19 -4 35 -10 35 -5 0 -10 9
-10 20 0 11 -7 20 -15 20 -8 0 -15 9 -15 20 0 16 -7 20 -35 20 -28 0 -35 4
-35 20 0 17 -7 20 -40 20 -33 0 -40 3 -40 20 0 16 -7 20 -35 20 -24 0 -35 5
-35 15 0 9 -9 15 -25 15 -18 0 -25 5 -25 20 0 11 -7 20 -15 20 -11 0 -15 11
-15 40 0 22 -4 40 -10 40 -6 0 -10 37 -10 90 0 53 4 90 10 90 6 0 10 18 10 40
0 36 3 40 25 40 18 0 25 5 25 20 0 11 7 20 15 20 8 0 15 9 15 20 0 19 7 20
110 20 103 0 110 -1 110 -20z m400 -190 l0 -210 165 0 165 0 0 210 0 210 35 0
35 0 0 -475 0 -475 -35 0 -35 0 0 210 0 210 -165 0 -165 0 0 -210 0 -210 -35
0 -35 0 0 475 0 475 35 0 35 0 0 -210z m1030 190 c0 -15 7 -20 25 -20 18 0 25
-5 25 -20 0 -15 7 -20 25 -20 18 0 25 -5 25 -20 0 -11 7 -20 15 -20 8 0 15 -9
15 -20 0 -11 5 -20 10 -20 6 0 10 -16 10 -35 0 -24 5 -35 15 -35 11 0 15 -11
15 -40 0 -22 5 -40 10 -40 6 0 10 -63 10 -170 0 -107 -4 -170 -10 -170 -5 0
-10 -16 -10 -35 0 -24 -5 -35 -15 -35 -11 0 -15 -11 -15 -40 0 -22 -4 -40 -10
-40 -5 0 -10 -7 -10 -15 0 -8 -7 -15 -15 -15 -8 0 -15 -9 -15 -20 0 -15 -7
-20 -25 -20 -18 0 -25 -5 -25 -20 0 -15 -7 -20 -25 -20 -18 0 -25 -5 -25 -20
0 -19 -7 -20 -110 -20 -103 0 -110 1 -110 20 0 16 -7 20 -30 20 -23 0 -30 4
-30 20 0 15 -7 20 -25 20 -18 0 -25 5 -25 20 0 11 -4 20 -10 20 -5 0 -10 7
-10 15 0 8 -7 15 -15 15 -11 0 -15 11 -15 40 0 22 -4 40 -10 40 -5 0 -10 16
-10 35 0 24 -5 35 -15 35 -13 0 -15 26 -15 170 0 144 2 170 15 170 11 0 15 11
15 40 0 22 5 40 10 40 6 0 10 16 10 35 0 24 5 35 15 35 8 0 15 9 15 20 0 11 5
20 10 20 6 0 10 9 10 20 0 15 7 20 25 20 18 0 25 5 25 20 0 16 7 20 30 20 23
0 30 4 30 20 0 19 7 20 110 20 103 0 110 -1 110 -20z m700 0 c0 -15 7 -20 25
-20 18 0 25 -5 25 -20 0 -11 7 -20 15 -20 8 0 15 -9 15 -20 0 -11 5 -20 10
-20 6 0 10 -9 10 -20 0 -11 7 -20 15 -20 13 0 15 -23 15 -150 0 -127 -2 -150
-15 -150 -10 0 -15 -11 -15 -35 0 -19 -4 -35 -10 -35 -5 0 -10 -9 -10 -20 0
-11 -7 -20 -15 -20 -8 0 -15 -9 -15 -20 0 -16 -7 -20 -35 -20 -28 0 -35 -4
-35 -20 0 -19 -7 -20 -100 -20 l-100 0 0 -150 0 -150 -40 0 -40 0 0 475 0 475
150 0 c143 0 150 -1 150 -20z"/>
<path d="M2860 2310 c0 -15 -7 -20 -25 -20 -16 0 -25 -6 -25 -15 0 -10 -10
-15 -30 -15 -23 0 -30 -4 -30 -20 0 -11 -4 -20 -10 -20 -5 0 -10 -18 -10 -40
0 -29 -4 -40 -15 -40 -12 0 -15 -13 -15 -55 0 -30 -4 -55 -10 -55 -5 0 -10
-25 -10 -55 0 -30 5 -55 10 -55 6 0 10 -27 10 -60 0 -47 3 -60 15 -60 10 0 15
-11 15 -35 0 -19 5 -35 10 -35 6 0 10 -9 10 -20 0 -16 7 -20 30 -20 23 0 30
-4 30 -20 0 -15 7 -20 25 -20 16 0 25 -6 25 -15 0 -12 13 -15 60 -15 47 0 60
3 60 15 0 9 9 15 25 15 18 0 25 5 25 20 0 15 7 20 25 20 18 0 25 5 25 20 0 11
7 20 15 20 10 0 15 11 15 35 0 19 5 35 10 35 6 0 10 27 10 60 0 47 3 60 15 60
12 0 15 13 15 55 0 42 -3 55 -15 55 -12 0 -15 13 -15 55 0 30 -4 55 -10 55 -5
0 -10 18 -10 40 0 29 -4 40 -15 40 -8 0 -15 9 -15 20 0 15 -7 20 -25 20 -16 0
-25 6 -25 15 0 9 -9 15 -25 15 -18 0 -25 5 -25 20 0 18 -7 20 -60 20 -53 0
-60 -2 -60 -20z"/>
<path d="M3510 2125 l0 -205 75 0 c68 0 75 2 75 20 0 16 7 20 35 20 24 0 35 5
35 15 0 8 7 15 15 15 11 0 15 11 15 40 0 22 5 40 10 40 6 0 10 32 10 75 0 43
-4 75 -10 75 -5 0 -10 16 -10 35 0 31 -3 35 -25 35 -18 0 -25 5 -25 20 0 19
-7 20 -100 20 l-100 0 0 -205z"/>
<path d="M5430 2675 l0 -265 40 0 40 0 0 130 c0 80 4 130 10 130 6 0 10 -9 10
-20 0 -11 7 -20 15 -20 10 0 15 -11 15 -35 l0 -35 50 0 c43 0 50 3 50 20 0 11
7 20 15 20 8 0 15 7 15 15 0 8 5 15 10 15 6 0 10 -43 10 -110 l0 -110 50 0 50
0 0 265 0 265 -35 0 c-28 0 -35 -4 -35 -20 0 -11 -7 -20 -15 -20 -8 0 -15 -9
-15 -20 0 -11 -4 -20 -10 -20 -5 0 -10 -16 -10 -35 0 -24 -5 -35 -15 -35 -8 0
-15 -9 -15 -20 0 -11 -4 -20 -10 -20 -5 0 -10 -9 -10 -20 0 -16 -7 -20 -30
-20 -28 0 -30 2 -30 40 0 22 -4 40 -10 40 -5 0 -10 7 -10 15 0 8 -7 15 -15 15
-11 0 -15 11 -15 40 0 22 -4 40 -10 40 -5 0 -10 9 -10 20 0 17 -7 20 -40 20
l-40 0 0 -265z"/>
<path d="M5890 2675 l0 -265 110 0 110 0 0 55 0 55 -60 0 -60 0 0 55 0 55 60
0 60 0 0 60 0 60 -60 0 -60 0 0 35 0 35 60 0 60 0 0 60 0 60 -110 0 -110 0 0
-265z"/>
<path d="M6190 2675 l0 -265 50 0 50 0 0 110 c0 67 4 110 10 110 6 0 10 -7 10
-15 0 -8 7 -15 15 -15 8 0 15 -9 15 -20 0 -11 5 -20 10 -20 6 0 10 -18 10 -40
0 -29 4 -40 15 -40 8 0 15 -7 15 -15 0 -8 5 -15 10 -15 6 0 10 -9 10 -20 0
-17 7 -20 40 -20 l40 0 0 265 0 265 -50 0 -50 0 0 -115 c0 -96 -3 -115 -15
-115 -8 0 -15 9 -15 20 0 11 -4 20 -10 20 -5 0 -10 16 -10 35 0 24 -5 35 -15
35 -8 0 -15 9 -15 20 0 11 -4 20 -10 20 -5 0 -10 9 -10 20 0 11 -7 20 -15 20
-8 0 -15 9 -15 20 0 16 -7 20 -35 20 l-35 0 0 -265z"/>
<path d="M6560 2845 l0 -95 40 0 40 0 0 95 0 95 -40 0 -40 0 0 -95z"/>
<path d="M6740 2920 c0 -11 -7 -20 -15 -20 -8 0 -15 -9 -15 -20 0 -11 -4 -20
-10 -20 -6 0 -10 -38 -10 -95 0 -95 0 -95 25 -95 18 0 25 -5 25 -20 0 -16 7
-20 35 -20 24 0 35 -5 35 -15 0 -8 7 -15 15 -15 11 0 15 -11 15 -40 l0 -40
-40 0 -40 0 0 40 c0 39 -1 40 -35 40 l-35 0 0 -60 c0 -33 4 -60 10 -60 6 0 10
-7 10 -15 0 -8 7 -15 15 -15 8 0 15 -9 15 -20 0 -18 7 -20 60 -20 53 0 60 2
60 20 0 15 7 20 25 20 16 0 25 6 25 15 0 8 7 15 15 15 12 0 15 15 15 75 0 60
-3 75 -15 75 -8 0 -15 9 -15 20 0 11 -4 20 -10 20 -5 0 -10 9 -10 20 0 17 -7
20 -40 20 -33 0 -40 3 -40 20 0 15 -7 20 -25 20 -22 0 -25 4 -25 35 0 34 1 35
40 35 29 0 40 -4 40 -15 0 -11 12 -15 50 -15 38 0 50 4 50 15 0 8 -7 15 -15
15 -11 0 -15 11 -15 40 0 36 -2 40 -25 40 -18 0 -25 5 -25 20 0 18 -7 20 -60
20 -53 0 -60 -2 -60 -20z"/>
<path d="M4630 1860 c0 -15 -7 -20 -25 -20 -18 0 -25 -5 -25 -20 0 -15 -7 -20
-25 -20 -22 0 -25 -4 -25 -35 0 -19 -4 -35 -10 -35 -6 0 -10 -45 -10 -115 0
-70 4 -115 10 -115 6 0 10 -16 10 -35 0 -31 3 -35 25 -35 18 0 25 -5 25 -20 0
-15 7 -20 25 -20 18 0 25 -5 25 -20 0 -17 7 -20 50 -20 43 0 50 3 50 20 0 15
7 20 25 20 18 0 25 5 25 20 0 11 7 20 15 20 8 0 15 7 15 15 0 8 5 15 10 15 6
0 10 9 10 20 0 11 7 20 15 20 8 0 15 9 15 20 0 17 -7 20 -50 20 -43 0 -50 -3
-50 -20 0 -18 -7 -20 -65 -20 -58 0 -65 2 -65 20 0 11 -4 20 -10 20 -6 0 -10
32 -10 75 0 43 4 75 10 75 6 0 10 9 10 20 0 18 7 20 65 20 58 0 65 -2 65 -20
0 -17 7 -20 50 -20 43 0 50 3 50 20 0 11 -7 20 -15 20 -8 0 -15 9 -15 20 0 11
-4 20 -10 20 -5 0 -10 7 -10 15 0 8 -7 15 -15 15 -8 0 -15 9 -15 20 0 15 -7
20 -25 20 -18 0 -25 5 -25 20 0 17 -7 20 -50 20 -43 0 -50 -3 -50 -20z"/>
<path d="M5030 1860 c0 -16 -7 -20 -35 -20 -28 0 -35 -4 -35 -20 0 -11 -7 -20
-15 -20 -10 0 -15 -11 -15 -35 0 -19 -4 -35 -10 -35 -6 0 -10 -45 -10 -115 0
-70 4 -115 10 -115 6 0 10 -16 10 -35 0 -24 5 -35 15 -35 8 0 15 -9 15 -20 0
-16 7 -20 35 -20 28 0 35 -4 35 -20 0 -17 7 -20 50 -20 43 0 50 3 50 20 0 17
7 20 40 20 33 0 40 3 40 20 0 11 5 20 10 20 6 0 10 16 10 35 0 24 5 35 15 35
12 0 15 19 15 115 0 96 -3 115 -15 115 -10 0 -15 11 -15 35 0 19 -4 35 -10 35
-5 0 -10 9 -10 20 0 17 -7 20 -40 20 -33 0 -40 3 -40 20 0 17 -7 20 -50 20
-43 0 -50 -3 -50 -20z m130 -170 c0 -22 5 -40 10 -40 6 0 10 -16 10 -35 0 -19
-4 -35 -10 -35 -5 0 -10 -18 -10 -40 l0 -40 -75 0 -75 0 0 40 c0 29 -4 40 -15
40 -10 0 -15 11 -15 35 0 24 5 35 15 35 11 0 15 11 15 40 l0 40 75 0 75 0 0
-40z"/>
<path d="M5330 1615 l0 -265 115 0 115 0 0 55 0 55 -65 0 c-58 0 -65 2 -65 20
0 11 -4 20 -10 20 -6 0 -10 70 -10 190 l0 190 -40 0 -40 0 0 -265z"/>
<path d="M5610 1615 l0 -265 125 0 125 0 0 55 0 55 -75 0 -75 0 0 210 0 210
-50 0 -50 0 0 -265z"/>
<path d="M5910 1615 l0 -265 115 0 115 0 0 55 0 55 -75 0 -75 0 0 40 c0 22 5
40 10 40 6 0 10 9 10 20 0 17 7 20 50 20 l50 0 0 55 0 55 -60 0 -60 0 0 40 0
40 75 0 75 0 0 55 0 55 -115 0 -115 0 0 -265z"/>
<path d="M6310 1860 c0 -15 -7 -20 -25 -20 -18 0 -25 -5 -25 -20 0 -15 -7 -20
-25 -20 -22 0 -25 -4 -25 -35 0 -19 -4 -35 -10 -35 -6 0 -10 -45 -10 -115 0
-70 4 -115 10 -115 6 0 10 -16 10 -35 0 -31 3 -35 25 -35 18 0 25 -5 25 -20 0
-15 7 -20 25 -20 18 0 25 -5 25 -20 0 -17 7 -20 50 -20 43 0 50 3 50 20 0 15
7 20 25 20 18 0 25 5 25 20 0 11 7 20 15 20 8 0 15 7 15 15 0 8 5 15 10 15 6
0 10 9 10 20 0 11 7 20 15 20 8 0 15 9 15 20 0 17 -7 20 -50 20 -43 0 -50 -3
-50 -20 0 -18 -7 -20 -65 -20 -58 0 -65 2 -65 20 0 11 -4 20 -10 20 -6 0 -10
32 -10 75 0 43 4 75 10 75 6 0 10 9 10 20 0 18 7 20 65 20 58 0 65 -2 65 -20
0 -17 7 -20 50 -20 43 0 50 3 50 20 0 11 -7 20 -15 20 -8 0 -15 9 -15 20 0 11
-4 20 -10 20 -5 0 -10 7 -10 15 0 8 -7 15 -15 15 -8 0 -15 9 -15 20 0 15 -7
20 -25 20 -18 0 -25 5 -25 20 0 17 -7 20 -50 20 -43 0 -50 -3 -50 -20z"/>
<path d="M6590 1825 l0 -55 35 0 c28 0 35 -4 35 -20 0 -11 7 -20 15 -20 13 0
15 -28 15 -190 l0 -190 50 0 50 0 0 210 0 210 50 0 50 0 0 55 0 55 -150 0
-150 0 0 -55z"/>
<path d="M6940 1615 l0 -265 50 0 50 0 0 265 0 265 -50 0 -50 0 0 -265z"/>
<path d="M7210 1860 c0 -15 -7 -20 -25 -20 -18 0 -25 -5 -25 -20 0 -11 -4 -20
-10 -20 -5 0 -10 -7 -10 -15 0 -8 -7 -15 -15 -15 -11 0 -15 -11 -15 -40 0 -22
-4 -40 -10 -40 -6 0 -10 -32 -10 -75 0 -43 4 -75 10 -75 6 0 10 -18 10 -40 0
-29 4 -40 15 -40 8 0 15 -7 15 -15 0 -8 5 -15 10 -15 6 0 10 -9 10 -20 0 -15
7 -20 25 -20 18 0 25 -5 25 -20 0 -18 7 -20 65 -20 58 0 65 2 65 20 0 15 7 20
25 20 18 0 25 5 25 20 0 11 5 20 10 20 6 0 10 7 10 15 0 8 7 15 15 15 11 0 15
11 15 40 0 22 5 40 10 40 6 0 10 32 10 75 0 43 -4 75 -10 75 -5 0 -10 18 -10
40 0 29 -4 40 -15 40 -8 0 -15 7 -15 15 0 8 -4 15 -10 15 -5 0 -10 9 -10 20 0
15 -7 20 -25 20 -18 0 -25 5 -25 20 0 18 -7 20 -65 20 -58 0 -65 -2 -65 -20z
m80 -110 c0 -15 7 -20 25 -20 18 0 25 -5 25 -20 0 -11 5 -20 10 -20 6 0 10
-32 10 -75 0 -43 -4 -75 -10 -75 -5 0 -10 -9 -10 -20 0 -15 -7 -20 -25 -20
-18 0 -25 -5 -25 -20 0 -11 -7 -20 -15 -20 -8 0 -15 9 -15 20 0 15 -7 20 -25
20 -18 0 -25 5 -25 20 0 11 -4 20 -10 20 -6 0 -10 32 -10 75 0 43 4 75 10 75
6 0 10 9 10 20 0 15 7 20 25 20 18 0 25 5 25 20 0 11 7 20 15 20 8 0 15 -9 15
-20z"/>
<path d="M7510 1615 l0 -265 50 0 50 0 0 135 c0 113 2 135 15 135 11 0 15 -11
15 -40 0 -22 5 -40 10 -40 6 0 10 -9 10 -20 0 -11 7 -20 15 -20 8 0 15 -9 15
-20 0 -11 5 -20 10 -20 6 0 10 -16 10 -35 0 -24 5 -35 15 -35 8 0 15 -9 15
-20 0 -16 7 -20 35 -20 l35 0 0 265 0 265 -35 0 -35 0 0 -115 0 -115 -25 0
c-18 0 -25 5 -25 20 0 11 -7 20 -15 20 -11 0 -15 11 -15 40 0 22 -4 40 -10 40
-5 0 -10 7 -10 15 0 8 -7 15 -15 15 -11 0 -15 11 -15 40 l0 40 -50 0 -50 0 0
-265z"/>
<path d="M7190 990 c0 -11 5 -20 10 -20 6 0 10 9 10 20 0 11 -4 20 -10 20 -5
0 -10 -9 -10 -20z"/>
</g>
</svg>
